<?xml version="1.0" encoding="UTF-8" standalone="no"?>
<!-- Created with Inkscape (http://www.inkscape.org/) -->

<svg
   width="86.602539mm"
   height="100mm"
   viewBox="0 0 86.602539 100"
   version="1.1"
   id="svg1"
   inkscape:version="1.3.2 (091e20ef0f, 2023-11-25)"
   sodipodi:docname="logo-2.svg"
   xmlns:inkscape="http://www.inkscape.org/namespaces/inkscape"
   xmlns:sodipodi="http://sodipodi.sourceforge.net/DTD/sodipodi-0.dtd"
   xmlns="http://www.w3.org/2000/svg"
   xmlns:svg="http://www.w3.org/2000/svg"
   xmlns:rdf="http://www.w3.org/1999/02/22-rdf-syntax-ns#"
   xmlns:cc="http://creativecommons.org/ns#"
   xmlns:dc="http://purl.org/dc/elements/1.1/">
  <defs
     id="defs1">
    <rect
       x="64.346718"
       y="156.97771"
       width="226.98128"
       height="335.16861"
       id="rect45" />
    <rect
       x="430"
       y="559"
       width="269"
       height="181"
       id="rect44" />
    <rect
       x="121"
       y="705.5"
       width="170.5"
       height="72.5"
       id="rect43" />
    <linearGradient
       id="swatch35"
       inkscape:swatch="solid">
      <stop
         style="stop-color:#666666;stop-opacity:1;"
         offset="0"
         id="stop35" />
    </linearGradient>
    <linearGradient
       id="swatch33"
       inkscape:swatch="solid">
      <stop
         style="stop-color:#666666;stop-opacity:1;"
         offset="0"
         id="stop33" />
    </linearGradient>
    <inkscape:perspective
       sodipodi:type="inkscape:persp3d"
       inkscape:vp_x="-168.52965 : 91.911388 : 0"
       inkscape:vp_y="0 : 1583.5467 : 0"
       inkscape:vp_z="168.52965 : 91.911389 : 0"
       inkscape:persp3d-origin="60.468984 : 0.97362071 : 1"
       id="perspective16" />
    <clipPath
       clipPathUnits="userSpaceOnUse"
       id="clipPath30">
      <path
         id="path30"
         clip-path="none"
         style="opacity:1;fill:#ff0000;stroke:#000000;stroke-width:0.29759;stroke-opacity:1"
         d="M -5.1428385,-6.4657552 V 105.14294 H 90.952071 V -6.4657552 Z M 3.4824747,38.456566 20.500557,48.281807 19.823079,52.420573 9.7053506,46.579068 v 8.297169 l 8.8056644,5.083926 v 4.529442 L 9.7053506,59.406192 V 71.343967 L 3.4824747,67.750904 Z M 25.149369,58.345792 c 1.419928,0.02032 3.056146,0.565227 4.908229,1.634525 3.189108,1.841235 5.672193,4.276746 7.45019,7.307048 1.777998,3.030305 2.667022,6.337657 2.667022,9.921875 0,0.282223 -0.04194,1.034044 -0.126609,2.25516 L 26.03562,71.373939 c 0.197555,2.146057 0.747952,3.903435 1.651063,5.271511 0.90311,1.368078 2.130758,2.5 3.682978,3.396176 0.959554,0.554 1.862731,0.920263 2.709397,1.098642 0.846664,0.178377 1.763993,0.214008 2.75177,0.106969 l 2.497521,4.828645 c -2.511774,0.581825 -5.348155,-0.03955 -8.509042,-1.864484 -3.527774,-2.036762 -6.237299,-4.659368 -8.128186,-7.867737 -1.890887,-3.208369 -2.836002,-6.618978 -2.836002,-10.231417 0,-2.285997 0.395236,-4.103946 1.185457,-5.45393 0.818444,-1.361916 1.989482,-2.124927 3.513481,-2.289267 0.194027,-0.0185 0.392465,-0.02617 0.595312,-0.02326 z m 3.021004,5.196584 c -0.33999,0.02199 -0.642337,0.131651 -0.906921,0.328144 -0.677333,0.512053 -1.086721,1.757455 -1.227832,3.736205 l 8.17056,4.717026 v -0.254249 c 0,-3.725328 -1.340869,-6.361655 -4.021976,-7.909594 -0.77611,-0.448088 -1.447181,-0.65418 -2.013831,-0.617532 z" />
    </clipPath>
  </defs>
  <sodipodi:namedview
     id="base"
     pagecolor="#000000"
     bordercolor="#000000"
     borderopacity="0.3"
     inkscape:pageopacity="0.0"
     inkscape:pageshadow="2"
     inkscape:zoom="1"
     inkscape:cx="244"
     inkscape:cy="67"
     inkscape:document-units="mm"
     inkscape:showpageshadow="0"
     inkscape:pagecheckerboard="0"
     inkscape:deskcolor="#505050"
     inkscape:window-width="1920"
     inkscape:window-height="1008"
     inkscape:window-x="0"
     inkscape:window-y="0"
     inkscape:window-maximized="1"
     inkscape:current-layer="svg1" />
  <metadata
     id="metadata1">
    <rdf:RDF>
      <cc:Work
         rdf:about="">
        <dc:format>image/svg+xml</dc:format>
        <dc:type
           rdf:resource="http://purl.org/dc/dcmitype/StillImage" />
      </cc:Work>
    </rdf:RDF>
  </metadata>
  <g
     sodipodi:type="inkscape:box3d"
     id="g16"
     style="display:inline;opacity:1;fill:#24ff00"
     inkscape:perspectiveID="#perspective16"
     inkscape:corner0="0.35880324 : 0.02673372 : 0 : 1"
     inkscape:corner7="0.10294334 : -0.0065898186 : 0.25801134 : 1"
     inkscape:label="box"
     clip-path="url(#clipPath30)">
    <path
       sodipodi:type="inkscape:box3dside"
       id="path17"
       style="display:inline;fill:#999999;fill-rule:evenodd;stroke:none;stroke-linejoin:round"
       inkscape:box3dsidetype="5"
       d="M -4.5606601e-7,23.714181 43.119979,47.23062 86.602539,23.516439 43.48256,0 Z"
       points="43.119979,47.23062 86.602539,23.516439 43.48256,-2.1118165e-09 -4.5606601e-07,23.714181 "
       inkscape:label="top" />
    <path
       sodipodi:type="inkscape:box3dside"
       id="path19"
       style="display:inline;fill:#808080;fill-rule:evenodd;stroke:none;stroke-linejoin:round"
       inkscape:box3dsidetype="14"
       d="M 43.119979,47.23062 V 100 l 43.48256,-23.714181 v -52.76938 z"
       points="43.119979,100 86.602539,76.285819 86.602539,23.516439 43.119979,47.23062 "
       inkscape:label="right" />
    <path
       sodipodi:type="inkscape:box3dside"
       id="path18"
       style="display:inline;fill:#666666;fill-opacity:1;fill-rule:evenodd;stroke:none;stroke-linejoin:round"
       inkscape:box3dsidetype="3"
       d="M -4.5606601e-7,23.714181 43.119979,47.23062 V 100 L -4.5606601e-7,76.483561 Z"
       points="43.119979,47.23062 43.119979,100 -4.5606601e-07,76.483561 -4.5606601e-07,23.714181 "
       inkscape:label="left" />
  </g>
</svg>
